

General
Complete name                            : Star Parivaar Awards 2012 Main Event 24th March.wmv
Format                                   : Windows Media
File size                                : 564 MiB
Duration                                 : 2h 32mn
Overall bit rate mode                    : Constant
Overall bit rate                         : 516 Kbps
Maximum Overall bit rate                 : 521 Kbps
Encoded date                             : UTC 2012-03-24 15:32:46.390

Video
ID                                       : 2
Format                                   : VC-1
Format profile                           : MP@LL
Codec ID                                 : WMV3
Codec ID/Info                            : Windows Media Video 9
Codec ID/Hint                            : WMV3
Description of the codec                 : Windows Media Video 9
Duration                                 : 2h 32mn
Bit rate mode                            : Constant
Bit rate                                 : 448 Kbps
Width                                    : 320 pixels
Height                                   : 240 pixels
Display aspect ratio                     : 4:3
Frame rate                               : 25.000 fps
Bit depth                                : 8 bits
Scan type                                : Progressive
Compression mode                         : Lossy
Bits/(Pixel*Frame)                       : 0.233
Stream size                              : 489 MiB (87%)

Audio
ID                                       : 1
Format                                   : WMA
Format version                           : Version 2
Codec ID                                 : 161
Codec ID/Info                            : Windows Media Audio
Description of the codec                 : Windows Media Audio 9.2 -  64 kbps, 44 kHz, stereo (A/V) 1-pass CBR
Duration                                 : 2h 32mn
Bit rate mode                            : Constant
Bit rate                                 : 64.0 Kbps
Channel(s)                               : 2 channels
Sampling rate                            : 44.1 KHz
Bit depth                                : 16 bits
Stream size                              : 69.9 MiB (12%)


 
http://i.minus.com/jbuD51qCWWMud4.jpg

 
http://i.minus.com/jbdy4dIfjMkrDT.PNG